<svg width="300" height="350" viewBox="0 0 300 350" fill="none" xmlns="http://www.w3.org/2000/svg">
<rect width="300" height="350" fill="#1E1E1E"/>
<path d="M0 0H300V300H0V0Z" fill="#272727"/>
<path d="M0.498339 0H150V150H0.498339V0Z" fill="#D64141"/>
<path d="M73.2558 0H80.2326V150H73.2558V0Z" fill="#E74D4D"/>
<path d="M0 78.5L0 71.5H149.502V78.5H0Z" fill="#E74D4D"/>
<path d="M62.2924 37C62.2924 50.8071 51.1367 62 37.3754 62C23.6142 62 12.4585 50.8071 12.4585 37C12.4585 23.1929 23.6142 12 37.3754 12C51.1367 12 62.2924 23.1929 62.2924 37Z" fill="#9C1F1F"/>
<path d="M140.033 37C140.033 50.8071 128.878 62 115.116 62C101.355 62 90.1993 50.8071 90.1993 37C90.1993 23.1929 101.355 12 115.116 12C128.878 12 140.033 23.1929 140.033 37Z" fill="#9C1F1F"/>
<path d="M140.033 116C140.033 129.807 128.878 141 115.116 141C101.355 141 90.1993 129.807 90.1993 116C90.1993 102.193 101.355 91 115.116 91C128.878 91 140.033 102.193 140.033 116Z" fill="#9C1F1F"/>
<path d="M62.2924 115C62.2924 128.807 51.1367 140 37.3754 140C23.6142 140 12.4585 128.807 12.4585 115C12.4585 101.193 23.6142 90 37.3754 90C51.1367 90 62.2924 101.193 62.2924 115Z" fill="#9C1F1F"/>
<path d="M150.498 150H300V300H150.498V150Z" fill="#5250D8"/>
<path d="M226.246 150H233.223V300H226.246V150Z" fill="#6361E2"/>
<path d="M150 228.5V221.5H299.502V228.5H150Z" fill="#6361E2"/>
<path d="M213.289 187C213.289 200.807 202.133 212 188.372 212C174.611 212 163.455 200.807 163.455 187C163.455 173.193 174.611 162 188.372 162C202.133 162 213.289 173.193 213.289 187Z" fill="#3840B8"/>
<path d="M213.289 265C213.289 278.807 202.133 290 188.372 290C174.611 290 163.455 278.807 163.455 265C163.455 251.193 174.611 240 188.372 240C202.133 240 213.289 251.193 213.289 265Z" fill="#3840B8"/>
<path d="M291.03 265C291.03 278.807 279.874 290 266.113 290C252.352 290 241.196 278.807 241.196 265C241.196 251.193 252.352 240 266.113 240C279.874 240 291.03 251.193 291.03 265Z" fill="#3840B8"/>
<path d="M291.03 187C291.03 200.807 279.874 212 266.113 212C252.352 212 241.196 200.807 241.196 187C241.196 173.193 252.352 162 266.113 162C279.874 162 291.03 173.193 291.03 187Z" fill="#3840B8"/>
<g filter="url(#filter0_i_0_1)">
<rect x="187" y="38" width="75" height="75" rx="20" fill="#D9D9D9"/>
</g>
<g filter="url(#filter1_d_0_1)">
<circle cx="212" cy="65" r="7" fill="#2F2C2C"/>
</g>
<g filter="url(#filter2_d_0_1)">
<circle cx="212" cy="88" r="7" fill="#2F2C2C"/>
</g>
<g filter="url(#filter3_d_0_1)">
<circle cx="241" cy="65" r="7" fill="#2F2C2C"/>
</g>
<g filter="url(#filter4_d_0_1)">
<circle cx="241" cy="88" r="7" fill="#2F2C2C"/>
</g>
<g filter="url(#filter5_i_0_1)">
<rect x="38" y="186" width="75" height="75" rx="20" fill="#D9D9D9"/>
</g>
<g filter="url(#filter6_d_0_1)">
<circle cx="63" cy="213" r="7" fill="#2F2C2C"/>
</g>
<g filter="url(#filter7_d_0_1)">
<circle cx="63" cy="236" r="7" fill="#2F2C2C"/>
</g>
<g filter="url(#filter8_d_0_1)">
<circle cx="92" cy="213" r="7" fill="#2F2C2C"/>
</g>
<g filter="url(#filter9_d_0_1)">
<circle cx="92" cy="236" r="7" fill="#2F2C2C"/>
</g>
<rect y="300" width="300" height="50" fill="#181818"/>
<path d="M84.9155 328.696H85.5875V334H75.5315V332.32C75.5315 331.328 75.6835 330.496 75.9875 329.824C76.3075 329.136 76.7315 328.544 77.2595 328.048C77.7875 327.552 78.3555 327.112 78.9635 326.728C79.5555 326.328 80.1395 325.92 80.7155 325.504C81.3075 325.072 81.7955 324.552 82.1795 323.944C82.5635 323.32 82.7555 322.528 82.7555 321.568C82.7555 319.376 82.0275 318.28 80.5715 318.28C79.6755 318.28 79.0435 318.672 78.6755 319.456C78.3235 320.24 78.2275 321.352 78.3875 322.792L75.5075 322.408C75.3635 321.544 75.4435 320.736 75.7475 319.984C76.0675 319.232 76.6275 318.624 77.4275 318.16C78.2435 317.68 79.2995 317.44 80.5955 317.44C81.8595 317.44 82.8755 317.648 83.6435 318.064C84.4115 318.464 84.9715 319 85.3235 319.672C85.6915 320.328 85.8755 321.04 85.8755 321.808C85.8755 322.752 85.6835 323.528 85.2995 324.136C84.9155 324.744 84.4115 325.248 83.7875 325.648C83.1635 326.032 82.4915 326.368 81.7715 326.656C81.0515 326.928 80.3555 327.224 79.6835 327.544C78.8675 327.912 78.1715 328.408 77.5955 329.032C77.0195 329.64 76.6675 330.464 76.5395 331.504H83.0915C83.4755 331.504 83.7475 331.496 83.9075 331.48C84.0675 331.448 84.1715 331.392 84.2195 331.312C84.2835 331.216 84.3395 331.072 84.3875 330.88L84.9155 328.696ZM88.2408 326.392V325.552H94.5768V326.392H88.2408ZM97.0437 318.352V317.68H104.268C106.028 317.68 107.34 318.088 108.204 318.904C109.084 319.704 109.524 320.776 109.524 322.12V322.672C109.524 324.016 109.084 325.096 108.204 325.912C107.34 326.728 106.028 327.136 104.268 327.136H101.772V331.984C101.772 332.528 101.796 332.856 101.844 332.968C101.892 333.064 102.044 333.128 102.3 333.16L104.1 333.328V334H97.0437V333.328L98.3637 333.16C98.6197 333.128 98.7717 333.064 98.8197 332.968C98.8677 332.856 98.8917 332.528 98.8917 331.984V319.696C98.8917 319.152 98.8677 318.832 98.8197 318.736C98.7717 318.624 98.6197 318.552 98.3637 318.52L97.0437 318.352ZM104.268 318.52H101.772V326.296H104.268C104.972 326.296 105.508 326.016 105.876 325.456C106.26 324.896 106.452 324.128 106.452 323.152V321.64C106.452 320.664 106.26 319.904 105.876 319.36C105.508 318.8 104.972 318.52 104.268 318.52ZM110.388 316.912V316.24H114.996V331.984C114.996 332.528 115.02 332.856 115.068 332.968C115.116 333.064 115.268 333.128 115.524 333.16L116.844 333.328V334H110.388V333.328L111.708 333.16C111.964 333.128 112.116 333.064 112.164 332.968C112.212 332.856 112.236 332.528 112.236 331.984V318.256C112.236 317.712 112.212 317.392 112.164 317.296C112.116 317.184 111.964 317.112 111.708 317.08L110.388 316.912ZM130.015 333.4C129.759 333.64 129.447 333.84 129.079 334C128.727 334.16 128.295 334.24 127.783 334.24C127.127 334.24 126.575 334.096 126.127 333.808C125.695 333.52 125.407 333.112 125.263 332.584C124.735 333.16 124.151 333.584 123.511 333.856C122.887 334.112 122.247 334.24 121.591 334.24C120.487 334.24 119.663 333.936 119.119 333.328C118.575 332.704 118.303 331.928 118.303 331C118.303 330.056 118.647 329.296 119.335 328.72C120.023 328.128 121.239 327.832 122.983 327.832H125.167V325.888C125.167 324.56 124.991 323.656 124.639 323.176C124.303 322.68 123.831 322.432 123.223 322.432C122.823 322.432 122.455 322.536 122.119 322.744C121.783 322.936 121.543 323.304 121.399 323.848C121.271 324.376 121.295 325.144 121.471 326.152L118.831 325.768C118.703 325.032 118.783 324.352 119.071 323.728C119.375 323.088 119.879 322.576 120.583 322.192C121.287 321.792 122.183 321.592 123.271 321.592C124.503 321.592 125.455 321.792 126.127 322.192C126.799 322.592 127.263 323.12 127.519 323.776C127.791 324.432 127.927 325.136 127.927 325.888V331.432C127.927 332.248 127.999 332.76 128.143 332.968C128.287 333.176 128.447 333.28 128.623 333.28C128.911 333.28 129.231 333.112 129.583 332.776L130.015 333.4ZM122.647 332.968C123.063 332.968 123.471 332.864 123.871 332.656C124.287 332.432 124.719 332.024 125.167 331.432V328.672H123.367C122.583 328.672 122.015 328.856 121.663 329.224C121.311 329.592 121.135 330.168 121.135 330.952C121.135 331.592 121.263 332.088 121.519 332.44C121.775 332.792 122.151 332.968 122.647 332.968ZM136.565 335.2C136.197 336.208 135.789 337.016 135.341 337.624C134.909 338.232 134.373 338.672 133.733 338.944C133.093 339.216 132.293 339.352 131.333 339.352V336.712C132.309 336.712 133.093 336.64 133.685 336.496C134.293 336.368 134.757 336.152 135.077 335.848C135.413 335.56 135.661 335.184 135.821 334.72L136.061 334H134.813L131.405 323.848C131.293 323.48 131.197 323.224 131.117 323.08C131.053 322.92 130.973 322.816 130.877 322.768C130.797 322.72 130.669 322.688 130.493 322.672L129.173 322.504V321.832H135.653V322.504L134.333 322.672C134.141 322.688 134.021 322.752 133.973 322.864C133.941 322.96 134.013 323.288 134.189 323.848L136.805 331.768L139.517 323.752C139.693 323.24 139.765 322.944 139.733 322.864C139.717 322.768 139.589 322.704 139.349 322.672L138.029 322.504V321.832H142.613V322.504L141.293 322.672C141.053 322.704 140.893 322.768 140.813 322.864C140.733 322.96 140.605 323.256 140.429 323.752L136.565 335.2ZM153.021 331.144C152.733 332.264 152.197 333.064 151.413 333.544C150.629 334.008 149.717 334.24 148.677 334.24C146.757 334.24 145.317 333.688 144.357 332.584C143.397 331.464 142.917 329.984 142.917 328.144V327.664C142.917 325.824 143.365 324.352 144.261 323.248C145.173 322.144 146.485 321.592 148.197 321.592C149.157 321.592 150.005 321.784 150.741 322.168C151.493 322.536 152.077 323.072 152.493 323.776C152.925 324.48 153.141 325.336 153.141 326.344C153.141 326.584 153.125 326.84 153.093 327.112C153.077 327.384 153.037 327.656 152.973 327.928H145.869V328.624C145.869 330.32 146.109 331.544 146.589 332.296C147.069 333.032 147.845 333.4 148.917 333.4C149.605 333.4 150.189 333.2 150.669 332.8C151.149 332.384 151.421 331.688 151.485 330.712L153.021 331.144ZM148.197 322.432C147.413 322.432 146.829 322.792 146.445 323.512C146.061 324.232 145.869 325.424 145.869 327.088H150.213C150.277 326.768 150.317 326.472 150.333 326.2C150.365 325.912 150.381 325.648 150.381 325.408C150.381 324.384 150.181 323.632 149.781 323.152C149.381 322.672 148.853 322.432 148.197 322.432ZM154.9 322.504V321.832H159.364V323.8C160.34 322.328 161.5 321.592 162.844 321.592C163.34 321.592 163.82 321.752 164.284 322.072C164.748 322.376 165.132 322.952 165.436 323.8L163.3 324.952C163.076 324.296 162.812 323.856 162.508 323.632C162.22 323.392 161.908 323.272 161.572 323.272C161.22 323.272 160.876 323.384 160.54 323.608C160.204 323.832 159.86 324.248 159.508 324.856V331.984C159.508 332.528 159.532 332.856 159.58 332.968C159.628 333.064 159.78 333.128 160.036 333.16L161.836 333.328V334H154.9V333.328L156.22 333.16C156.476 333.128 156.628 333.064 156.676 332.968C156.724 332.856 156.748 332.528 156.748 331.984V323.848C156.748 323.304 156.724 322.984 156.676 322.888C156.628 322.776 156.476 322.704 156.22 322.672L154.9 322.504ZM182.561 329.872H183.233V334H171.833V333.328L173.153 333.16C173.409 333.128 173.561 333.064 173.609 332.968C173.657 332.856 173.681 332.528 173.681 331.984V319.696C173.681 319.152 173.657 318.832 173.609 318.736C173.561 318.624 173.409 318.552 173.153 318.52L171.833 318.352V317.68H178.409V318.352L177.089 318.52C176.833 318.552 176.681 318.624 176.633 318.736C176.585 318.832 176.561 319.152 176.561 319.696V333.16H180.497C180.881 333.16 181.153 333.152 181.313 333.136C181.473 333.104 181.577 333.048 181.625 332.968C181.689 332.872 181.745 332.728 181.793 332.536L182.561 329.872ZM197.734 333.328V334H193.27V331.888C192.822 332.704 192.246 333.304 191.542 333.688C190.838 334.056 190.126 334.24 189.406 334.24C188.27 334.24 187.366 333.864 186.694 333.112C186.022 332.344 185.686 331.28 185.686 329.92V323.848C185.686 323.304 185.662 322.984 185.614 322.888C185.566 322.776 185.414 322.704 185.158 322.672L183.838 322.504V321.832H188.446V329.896C188.446 331 188.598 331.808 188.902 332.32C189.222 332.816 189.678 333.064 190.27 333.064C190.526 333.064 190.822 333 191.158 332.872C191.51 332.728 191.862 332.48 192.214 332.128C192.566 331.76 192.87 331.24 193.126 330.568V323.848C193.126 323.304 193.102 322.976 193.054 322.864C193.006 322.752 192.854 322.688 192.598 322.672L190.798 322.504V321.832H195.886V331.984C195.886 332.528 195.91 332.856 195.958 332.968C196.006 333.064 196.158 333.128 196.414 333.16L197.734 333.328ZM211.785 333.328V334H207.321V332.008C206.873 332.744 206.369 333.304 205.809 333.688C205.265 334.056 204.617 334.24 203.865 334.24C202.521 334.24 201.449 333.712 200.649 332.656C199.865 331.584 199.473 330.088 199.473 328.168V327.688C199.473 325.832 199.929 324.352 200.841 323.248C201.769 322.144 203.033 321.592 204.633 321.592C205.593 321.592 206.441 321.832 207.177 322.312V318.256C207.177 317.712 207.153 317.392 207.105 317.296C207.057 317.184 206.905 317.112 206.649 317.08L205.329 316.912V316.24H209.937V331.984C209.937 332.528 209.961 332.856 210.009 332.968C210.057 333.064 210.209 333.128 210.465 333.16L211.785 333.328ZM202.425 328.888C202.425 330.376 202.609 331.464 202.977 332.152C203.345 332.84 203.849 333.184 204.489 333.184C204.889 333.184 205.305 333.024 205.737 332.704C206.185 332.368 206.665 331.696 207.177 330.688V323.44C206.569 322.832 205.825 322.528 204.945 322.528C204.065 322.528 203.425 322.928 203.025 323.728C202.625 324.512 202.425 325.592 202.425 326.968V328.888ZM224.408 327.664V328.144C224.408 329.984 223.928 331.464 222.968 332.584C222.024 333.688 220.672 334.24 218.912 334.24C217.152 334.24 215.792 333.688 214.832 332.584C213.888 331.464 213.416 329.984 213.416 328.144V327.664C213.416 325.824 213.888 324.352 214.832 323.248C215.792 322.144 217.152 321.592 218.912 321.592C220.672 321.592 222.024 322.144 222.968 323.248C223.928 324.352 224.408 325.824 224.408 327.664ZM221.456 327.184C221.456 325.472 221.24 324.256 220.808 323.536C220.376 322.8 219.744 322.432 218.912 322.432C218.096 322.432 217.464 322.8 217.016 323.536C216.584 324.256 216.368 325.472 216.368 327.184V328.624C216.368 330.32 216.584 331.544 217.016 332.296C217.464 333.032 218.096 333.4 218.912 333.4C219.744 333.4 220.376 333.032 220.808 332.296C221.24 331.544 221.456 330.32 221.456 328.624V327.184Z" fill="#B2CCDB"/>
<defs>
<filter id="filter0_i_0_1" x="187" y="38" width="79" height="79" filterUnits="userSpaceOnUse" color-interpolation-filters="sRGB">
<feFlood flood-opacity="0" result="BackgroundImageFix"/>
<feBlend mode="normal" in="SourceGraphic" in2="BackgroundImageFix" result="shape"/>
<feColorMatrix in="SourceAlpha" type="matrix" values="0 0 0 0 0 0 0 0 0 0 0 0 0 0 0 0 0 0 127 0" result="hardAlpha"/>
<feOffset dx="4" dy="4"/>
<feGaussianBlur stdDeviation="2"/>
<feComposite in2="hardAlpha" operator="arithmetic" k2="-1" k3="1"/>
<feColorMatrix type="matrix" values="0 0 0 0 0 0 0 0 0 0 0 0 0 0 0 0 0 0 0.25 0"/>
<feBlend mode="normal" in2="shape" result="effect1_innerShadow_0_1"/>
</filter>
<filter id="filter1_d_0_1" x="202" y="57" width="24" height="24" filterUnits="userSpaceOnUse" color-interpolation-filters="sRGB">
<feFlood flood-opacity="0" result="BackgroundImageFix"/>
<feColorMatrix in="SourceAlpha" type="matrix" values="0 0 0 0 0 0 0 0 0 0 0 0 0 0 0 0 0 0 127 0" result="hardAlpha"/>
<feMorphology radius="1" operator="dilate" in="SourceAlpha" result="effect1_dropShadow_0_1"/>
<feOffset dx="2" dy="4"/>
<feGaussianBlur stdDeviation="2"/>
<feComposite in2="hardAlpha" operator="out"/>
<feColorMatrix type="matrix" values="0 0 0 0 0 0 0 0 0 0 0 0 0 0 0 0 0 0 0.25 0"/>
<feBlend mode="normal" in2="BackgroundImageFix" result="effect1_dropShadow_0_1"/>
<feBlend mode="normal" in="SourceGraphic" in2="effect1_dropShadow_0_1" result="shape"/>
</filter>
<filter id="filter2_d_0_1" x="202" y="80" width="24" height="24" filterUnits="userSpaceOnUse" color-interpolation-filters="sRGB">
<feFlood flood-opacity="0" result="BackgroundImageFix"/>
<feColorMatrix in="SourceAlpha" type="matrix" values="0 0 0 0 0 0 0 0 0 0 0 0 0 0 0 0 0 0 127 0" result="hardAlpha"/>
<feMorphology radius="1" operator="dilate" in="SourceAlpha" result="effect1_dropShadow_0_1"/>
<feOffset dx="2" dy="4"/>
<feGaussianBlur stdDeviation="2"/>
<feComposite in2="hardAlpha" operator="out"/>
<feColorMatrix type="matrix" values="0 0 0 0 0 0 0 0 0 0 0 0 0 0 0 0 0 0 0.25 0"/>
<feBlend mode="normal" in2="BackgroundImageFix" result="effect1_dropShadow_0_1"/>
<feBlend mode="normal" in="SourceGraphic" in2="effect1_dropShadow_0_1" result="shape"/>
</filter>
<filter id="filter3_d_0_1" x="231" y="57" width="24" height="24" filterUnits="userSpaceOnUse" color-interpolation-filters="sRGB">
<feFlood flood-opacity="0" result="BackgroundImageFix"/>
<feColorMatrix in="SourceAlpha" type="matrix" values="0 0 0 0 0 0 0 0 0 0 0 0 0 0 0 0 0 0 127 0" result="hardAlpha"/>
<feMorphology radius="1" operator="dilate" in="SourceAlpha" result="effect1_dropShadow_0_1"/>
<feOffset dx="2" dy="4"/>
<feGaussianBlur stdDeviation="2"/>
<feComposite in2="hardAlpha" operator="out"/>
<feColorMatrix type="matrix" values="0 0 0 0 0 0 0 0 0 0 0 0 0 0 0 0 0 0 0.25 0"/>
<feBlend mode="normal" in2="BackgroundImageFix" result="effect1_dropShadow_0_1"/>
<feBlend mode="normal" in="SourceGraphic" in2="effect1_dropShadow_0_1" result="shape"/>
</filter>
<filter id="filter4_d_0_1" x="231" y="80" width="24" height="24" filterUnits="userSpaceOnUse" color-interpolation-filters="sRGB">
<feFlood flood-opacity="0" result="BackgroundImageFix"/>
<feColorMatrix in="SourceAlpha" type="matrix" values="0 0 0 0 0 0 0 0 0 0 0 0 0 0 0 0 0 0 127 0" result="hardAlpha"/>
<feMorphology radius="1" operator="dilate" in="SourceAlpha" result="effect1_dropShadow_0_1"/>
<feOffset dx="2" dy="4"/>
<feGaussianBlur stdDeviation="2"/>
<feComposite in2="hardAlpha" operator="out"/>
<feColorMatrix type="matrix" values="0 0 0 0 0 0 0 0 0 0 0 0 0 0 0 0 0 0 0.25 0"/>
<feBlend mode="normal" in2="BackgroundImageFix" result="effect1_dropShadow_0_1"/>
<feBlend mode="normal" in="SourceGraphic" in2="effect1_dropShadow_0_1" result="shape"/>
</filter>
<filter id="filter5_i_0_1" x="38" y="186" width="79" height="79" filterUnits="userSpaceOnUse" color-interpolation-filters="sRGB">
<feFlood flood-opacity="0" result="BackgroundImageFix"/>
<feBlend mode="normal" in="SourceGraphic" in2="BackgroundImageFix" result="shape"/>
<feColorMatrix in="SourceAlpha" type="matrix" values="0 0 0 0 0 0 0 0 0 0 0 0 0 0 0 0 0 0 127 0" result="hardAlpha"/>
<feOffset dx="4" dy="4"/>
<feGaussianBlur stdDeviation="2"/>
<feComposite in2="hardAlpha" operator="arithmetic" k2="-1" k3="1"/>
<feColorMatrix type="matrix" values="0 0 0 0 0 0 0 0 0 0 0 0 0 0 0 0 0 0 0.25 0"/>
<feBlend mode="normal" in2="shape" result="effect1_innerShadow_0_1"/>
</filter>
<filter id="filter6_d_0_1" x="53" y="205" width="24" height="24" filterUnits="userSpaceOnUse" color-interpolation-filters="sRGB">
<feFlood flood-opacity="0" result="BackgroundImageFix"/>
<feColorMatrix in="SourceAlpha" type="matrix" values="0 0 0 0 0 0 0 0 0 0 0 0 0 0 0 0 0 0 127 0" result="hardAlpha"/>
<feMorphology radius="1" operator="dilate" in="SourceAlpha" result="effect1_dropShadow_0_1"/>
<feOffset dx="2" dy="4"/>
<feGaussianBlur stdDeviation="2"/>
<feComposite in2="hardAlpha" operator="out"/>
<feColorMatrix type="matrix" values="0 0 0 0 0 0 0 0 0 0 0 0 0 0 0 0 0 0 0.25 0"/>
<feBlend mode="normal" in2="BackgroundImageFix" result="effect1_dropShadow_0_1"/>
<feBlend mode="normal" in="SourceGraphic" in2="effect1_dropShadow_0_1" result="shape"/>
</filter>
<filter id="filter7_d_0_1" x="53" y="228" width="24" height="24" filterUnits="userSpaceOnUse" color-interpolation-filters="sRGB">
<feFlood flood-opacity="0" result="BackgroundImageFix"/>
<feColorMatrix in="SourceAlpha" type="matrix" values="0 0 0 0 0 0 0 0 0 0 0 0 0 0 0 0 0 0 127 0" result="hardAlpha"/>
<feMorphology radius="1" operator="dilate" in="SourceAlpha" result="effect1_dropShadow_0_1"/>
<feOffset dx="2" dy="4"/>
<feGaussianBlur stdDeviation="2"/>
<feComposite in2="hardAlpha" operator="out"/>
<feColorMatrix type="matrix" values="0 0 0 0 0 0 0 0 0 0 0 0 0 0 0 0 0 0 0.25 0"/>
<feBlend mode="normal" in2="BackgroundImageFix" result="effect1_dropShadow_0_1"/>
<feBlend mode="normal" in="SourceGraphic" in2="effect1_dropShadow_0_1" result="shape"/>
</filter>
<filter id="filter8_d_0_1" x="82" y="205" width="24" height="24" filterUnits="userSpaceOnUse" color-interpolation-filters="sRGB">
<feFlood flood-opacity="0" result="BackgroundImageFix"/>
<feColorMatrix in="SourceAlpha" type="matrix" values="0 0 0 0 0 0 0 0 0 0 0 0 0 0 0 0 0 0 127 0" result="hardAlpha"/>
<feMorphology radius="1" operator="dilate" in="SourceAlpha" result="effect1_dropShadow_0_1"/>
<feOffset dx="2" dy="4"/>
<feGaussianBlur stdDeviation="2"/>
<feComposite in2="hardAlpha" operator="out"/>
<feColorMatrix type="matrix" values="0 0 0 0 0 0 0 0 0 0 0 0 0 0 0 0 0 0 0.25 0"/>
<feBlend mode="normal" in2="BackgroundImageFix" result="effect1_dropShadow_0_1"/>
<feBlend mode="normal" in="SourceGraphic" in2="effect1_dropShadow_0_1" result="shape"/>
</filter>
<filter id="filter9_d_0_1" x="82" y="228" width="24" height="24" filterUnits="userSpaceOnUse" color-interpolation-filters="sRGB">
<feFlood flood-opacity="0" result="BackgroundImageFix"/>
<feColorMatrix in="SourceAlpha" type="matrix" values="0 0 0 0 0 0 0 0 0 0 0 0 0 0 0 0 0 0 127 0" result="hardAlpha"/>
<feMorphology radius="1" operator="dilate" in="SourceAlpha" result="effect1_dropShadow_0_1"/>
<feOffset dx="2" dy="4"/>
<feGaussianBlur stdDeviation="2"/>
<feComposite in2="hardAlpha" operator="out"/>
<feColorMatrix type="matrix" values="0 0 0 0 0 0 0 0 0 0 0 0 0 0 0 0 0 0 0.25 0"/>
<feBlend mode="normal" in2="BackgroundImageFix" result="effect1_dropShadow_0_1"/>
<feBlend mode="normal" in="SourceGraphic" in2="effect1_dropShadow_0_1" result="shape"/>
</filter>
</defs>
</svg>
