<svg width="300" height="350" viewBox="0 0 300 350" fill="none" xmlns="http://www.w3.org/2000/svg">
<rect width="300" height="350" fill="#1E1E1E"/>
<rect width="300" height="300" fill="#272727"/>
<rect x="98" y="15" width="10" height="270" rx="5" fill="#DDDDDD"/>
<rect x="188" y="15" width="10" height="270" rx="5" fill="#DDDDDD"/>
<rect x="15" y="112" width="10" height="270" rx="5" transform="rotate(-90 15 112)" fill="#DDDDDD"/>
<rect x="15" y="202" width="10" height="270" rx="5" transform="rotate(-90 15 202)" fill="#DDDDDD"/>
<path fill-rule="evenodd" clip-rule="evenodd" d="M148 187C167.33 187 183 171.33 183 152C183 132.67 167.33 117 148 117C128.67 117 113 132.67 113 152C113 171.33 128.67 187 148 187ZM148 182C164.569 182 178 168.569 178 152C178 135.431 164.569 122 148 122C131.431 122 118 135.431 118 152C118 168.569 131.431 182 148 182Z" fill="#D9D9D9"/>
<path fill-rule="evenodd" clip-rule="evenodd" d="M148 280C167.33 280 183 264.33 183 245C183 225.67 167.33 210 148 210C128.67 210 113 225.67 113 245C113 264.33 128.67 280 148 280ZM148 275C164.569 275 178 261.569 178 245C178 228.431 164.569 215 148 215C131.431 215 118 228.431 118 245C118 261.569 131.431 275 148 275Z" fill="#D9D9D9"/>
<path fill-rule="evenodd" clip-rule="evenodd" d="M242 278C261.33 278 277 262.33 277 243C277 223.67 261.33 208 242 208C222.67 208 207 223.67 207 243C207 262.33 222.67 278 242 278ZM242 273C258.569 273 272 259.569 272 243C272 226.431 258.569 213 242 213C225.431 213 212 226.431 212 243C212 259.569 225.431 273 242 273Z" fill="#D9D9D9"/>
<path fill-rule="evenodd" clip-rule="evenodd" d="M266.962 34.4645C265.009 32.5118 261.843 32.5118 259.891 34.4645L242.213 52.1421L224.536 34.4645C222.583 32.5118 219.417 32.5118 217.464 34.4645C215.512 36.4171 215.512 39.5829 217.464 41.5355L235.142 59.2132L217.464 76.8909C215.512 78.8435 215.512 82.0093 217.464 83.9619C219.417 85.9146 222.583 85.9146 224.536 83.9619L242.213 66.2843L259.891 83.9619C261.843 85.9146 265.009 85.9146 266.962 83.9619C268.915 82.0093 268.915 78.8435 266.962 76.8909L249.284 59.2132L266.962 41.5355C268.915 39.5829 268.915 36.4171 266.962 34.4645Z" fill="#D9D9D9"/>
<path fill-rule="evenodd" clip-rule="evenodd" d="M128.464 34.4645C126.512 36.4171 126.512 39.5829 128.464 41.5355L146.142 59.2132L128.464 76.8909C126.512 78.8435 126.512 82.0093 128.464 83.9619C130.417 85.9146 133.583 85.9146 135.536 83.9619L153.213 66.2843L170.891 83.9619C172.844 85.9146 176.009 85.9146 177.962 83.9619C179.915 82.0093 179.915 78.8435 177.962 76.8909L160.284 59.2132L177.962 41.5355C179.915 39.5829 179.915 36.4171 177.962 34.4645C176.009 32.5118 172.843 32.5118 170.891 34.4645L153.213 52.1421L135.536 34.4645C133.583 32.5118 130.417 32.5118 128.464 34.4645Z" fill="#D9D9D9"/>
<path fill-rule="evenodd" clip-rule="evenodd" d="M29.4645 34.4645C27.5119 36.4171 27.5119 39.5829 29.4645 41.5355L47.1421 59.2132L29.4645 76.8909C27.5118 78.8435 27.5118 82.0093 29.4645 83.9619C31.4171 85.9146 34.5829 85.9146 36.5355 83.9619L54.2132 66.2843L71.8909 83.9619C73.8435 85.9146 77.0093 85.9146 78.9619 83.9619C80.9146 82.0093 80.9146 78.8435 78.9619 76.8909L61.2843 59.2132L78.9619 41.5355C80.9146 39.5829 80.9146 36.4171 78.9619 34.4645C77.0093 32.5118 73.8435 32.5118 71.8909 34.4645L54.2132 52.1421L36.5355 34.4645C34.5829 32.5118 31.4171 32.5118 29.4645 34.4645Z" fill="#D9D9D9"/>
<rect x="13" y="52" width="270" height="10" rx="5" fill="#CA0000"/>
<rect y="300" width="300" height="50" fill="#181818"/>
<g filter="url(#filter0_d_0_1)">
<path d="M87.206 317.68H100.406V321.808H99.734L98.966 319.144C98.918 318.936 98.862 318.792 98.798 318.712C98.75 318.616 98.646 318.56 98.486 318.544C98.326 318.528 98.054 318.52 97.67 318.52H95.246V331.984C95.246 332.528 95.27 332.856 95.318 332.968C95.366 333.064 95.518 333.128 95.774 333.16L97.094 333.328V334H90.518V333.328L91.838 333.16C92.094 333.128 92.246 333.064 92.294 332.968C92.342 332.856 92.366 332.528 92.366 331.984V318.52H89.942C89.574 318.52 89.302 318.528 89.126 318.544C88.966 318.56 88.862 318.616 88.814 318.712C88.766 318.792 88.71 318.936 88.646 319.144L87.878 321.808H87.206V317.68ZM104.467 319.768C103.971 319.768 103.571 319.616 103.267 319.312C102.963 318.992 102.811 318.584 102.811 318.088C102.811 317.592 102.963 317.192 103.267 316.888C103.571 316.584 103.971 316.432 104.467 316.432C104.947 316.432 105.347 316.584 105.667 316.888C105.987 317.192 106.147 317.592 106.147 318.088C106.147 318.584 105.987 318.992 105.667 319.312C105.347 319.616 104.947 319.768 104.467 319.768ZM101.251 322.504V321.832H105.859V331.984C105.859 332.528 105.883 332.856 105.931 332.968C105.979 333.064 106.131 333.128 106.387 333.16L107.707 333.328V334H101.251V333.328L102.571 333.16C102.827 333.128 102.979 333.064 103.027 332.968C103.075 332.856 103.099 332.528 103.099 331.984V323.848C103.099 323.304 103.075 322.984 103.027 322.888C102.979 322.776 102.827 322.704 102.571 322.672L101.251 322.504ZM114.586 322.432C113.818 322.432 113.242 322.8 112.858 323.536C112.49 324.256 112.306 325.472 112.306 327.184V328.624C112.306 330.32 112.522 331.544 112.954 332.296C113.386 333.032 114.09 333.4 115.066 333.4C115.786 333.4 116.37 333.2 116.818 332.8C117.282 332.384 117.546 331.688 117.61 330.712L119.146 331.144C118.858 332.264 118.33 333.064 117.562 333.544C116.81 334.008 115.922 334.24 114.898 334.24C113.058 334.24 111.674 333.688 110.746 332.584C109.818 331.464 109.354 329.984 109.354 328.144V327.664C109.354 325.824 109.802 324.352 110.698 323.248C111.594 322.144 112.89 321.592 114.586 321.592C115.706 321.592 116.618 321.816 117.322 322.264C118.042 322.696 118.546 323.272 118.834 323.992C119.138 324.696 119.218 325.456 119.074 326.272L116.434 326.656C116.61 325.312 116.538 324.272 116.218 323.536C115.898 322.8 115.354 322.432 114.586 322.432ZM121.592 326.392V325.552H127.928V326.392H121.592ZM127.964 317.68H141.164V321.808H140.492L139.724 319.144C139.676 318.936 139.62 318.792 139.556 318.712C139.508 318.616 139.404 318.56 139.244 318.544C139.084 318.528 138.812 318.52 138.428 318.52H136.004V331.984C136.004 332.528 136.028 332.856 136.076 332.968C136.124 333.064 136.276 333.128 136.532 333.16L137.852 333.328V334H131.276V333.328L132.596 333.16C132.852 333.128 133.004 333.064 133.052 332.968C133.1 332.856 133.124 332.528 133.124 331.984V318.52H130.7C130.332 318.52 130.06 318.528 129.884 318.544C129.724 318.56 129.62 318.616 129.572 318.712C129.524 318.792 129.468 318.936 129.404 319.144L128.636 321.808H127.964V317.68ZM154.015 333.4C153.759 333.64 153.447 333.84 153.079 334C152.727 334.16 152.295 334.24 151.783 334.24C151.127 334.24 150.575 334.096 150.127 333.808C149.695 333.52 149.407 333.112 149.263 332.584C148.735 333.16 148.151 333.584 147.511 333.856C146.887 334.112 146.247 334.24 145.591 334.24C144.487 334.24 143.663 333.936 143.119 333.328C142.575 332.704 142.303 331.928 142.303 331C142.303 330.056 142.647 329.296 143.335 328.72C144.023 328.128 145.239 327.832 146.983 327.832H149.167V325.888C149.167 324.56 148.991 323.656 148.639 323.176C148.303 322.68 147.831 322.432 147.223 322.432C146.823 322.432 146.455 322.536 146.119 322.744C145.783 322.936 145.543 323.304 145.399 323.848C145.271 324.376 145.295 325.144 145.471 326.152L142.831 325.768C142.703 325.032 142.783 324.352 143.071 323.728C143.375 323.088 143.879 322.576 144.583 322.192C145.287 321.792 146.183 321.592 147.271 321.592C148.503 321.592 149.455 321.792 150.127 322.192C150.799 322.592 151.263 323.12 151.519 323.776C151.791 324.432 151.927 325.136 151.927 325.888V331.432C151.927 332.248 151.999 332.76 152.143 332.968C152.287 333.176 152.447 333.28 152.623 333.28C152.911 333.28 153.231 333.112 153.583 332.776L154.015 333.4ZM146.647 332.968C147.063 332.968 147.471 332.864 147.871 332.656C148.287 332.432 148.719 332.024 149.167 331.432V328.672H147.367C146.583 328.672 146.015 328.856 145.663 329.224C145.311 329.592 145.135 330.168 145.135 330.952C145.135 331.592 145.263 332.088 145.519 332.44C145.775 332.792 146.151 332.968 146.647 332.968ZM160.641 322.432C159.873 322.432 159.297 322.8 158.913 323.536C158.545 324.256 158.361 325.472 158.361 327.184V328.624C158.361 330.32 158.577 331.544 159.009 332.296C159.441 333.032 160.145 333.4 161.121 333.4C161.841 333.4 162.425 333.2 162.873 332.8C163.337 332.384 163.601 331.688 163.665 330.712L165.201 331.144C164.913 332.264 164.385 333.064 163.617 333.544C162.865 334.008 161.977 334.24 160.953 334.24C159.113 334.24 157.729 333.688 156.801 332.584C155.873 331.464 155.409 329.984 155.409 328.144V327.664C155.409 325.824 155.857 324.352 156.753 323.248C157.649 322.144 158.945 321.592 160.641 321.592C161.761 321.592 162.673 321.816 163.377 322.264C164.097 322.696 164.601 323.272 164.889 323.992C165.193 324.696 165.273 325.456 165.129 326.272L162.489 326.656C162.665 325.312 162.593 324.272 162.273 323.536C161.953 322.8 161.409 322.432 160.641 322.432ZM167.647 326.392V325.552H173.983V326.392H167.647ZM174.018 317.68H187.218V321.808H186.546L185.778 319.144C185.73 318.936 185.674 318.792 185.61 318.712C185.562 318.616 185.458 318.56 185.298 318.544C185.138 318.528 184.866 318.52 184.482 318.52H182.058V331.984C182.058 332.528 182.082 332.856 182.13 332.968C182.178 333.064 182.33 333.128 182.586 333.16L183.906 333.328V334H177.33V333.328L178.65 333.16C178.906 333.128 179.058 333.064 179.106 332.968C179.154 332.856 179.178 332.528 179.178 331.984V318.52H176.754C176.386 318.52 176.114 318.528 175.938 318.544C175.778 318.56 175.674 318.616 175.626 318.712C175.578 318.792 175.522 318.936 175.458 319.144L174.69 321.808H174.018V317.68ZM199.142 327.664V328.144C199.142 329.984 198.662 331.464 197.702 332.584C196.758 333.688 195.406 334.24 193.646 334.24C191.886 334.24 190.526 333.688 189.566 332.584C188.622 331.464 188.15 329.984 188.15 328.144V327.664C188.15 325.824 188.622 324.352 189.566 323.248C190.526 322.144 191.886 321.592 193.646 321.592C195.406 321.592 196.758 322.144 197.702 323.248C198.662 324.352 199.142 325.824 199.142 327.664ZM196.19 327.184C196.19 325.472 195.974 324.256 195.542 323.536C195.11 322.8 194.478 322.432 193.646 322.432C192.83 322.432 192.198 322.8 191.75 323.536C191.318 324.256 191.102 325.472 191.102 327.184V328.624C191.102 330.32 191.318 331.544 191.75 332.296C192.198 333.032 192.83 333.4 193.646 333.4C194.478 333.4 195.11 333.032 195.542 332.296C195.974 331.544 196.19 330.32 196.19 328.624V327.184ZM211.755 331.144C211.467 332.264 210.931 333.064 210.147 333.544C209.363 334.008 208.451 334.24 207.411 334.24C205.491 334.24 204.051 333.688 203.091 332.584C202.131 331.464 201.651 329.984 201.651 328.144V327.664C201.651 325.824 202.099 324.352 202.995 323.248C203.907 322.144 205.219 321.592 206.931 321.592C207.891 321.592 208.739 321.784 209.475 322.168C210.227 322.536 210.811 323.072 211.227 323.776C211.659 324.48 211.875 325.336 211.875 326.344C211.875 326.584 211.859 326.84 211.827 327.112C211.811 327.384 211.771 327.656 211.707 327.928H204.603V328.624C204.603 330.32 204.843 331.544 205.323 332.296C205.803 333.032 206.579 333.4 207.651 333.4C208.339 333.4 208.923 333.2 209.403 332.8C209.883 332.384 210.155 331.688 210.219 330.712L211.755 331.144ZM206.931 322.432C206.147 322.432 205.563 322.792 205.179 323.512C204.795 324.232 204.603 325.424 204.603 327.088H208.947C209.011 326.768 209.051 326.472 209.067 326.2C209.099 325.912 209.115 325.648 209.115 325.408C209.115 324.384 208.915 323.632 208.515 323.152C208.115 322.672 207.587 322.432 206.931 322.432Z" fill="#B3CCDB"/>
</g>
<defs>
<filter id="filter0_d_0_1" x="83.206" y="316.432" width="132.669" height="25.808" filterUnits="userSpaceOnUse" color-interpolation-filters="sRGB">
<feFlood flood-opacity="0" result="BackgroundImageFix"/>
<feColorMatrix in="SourceAlpha" type="matrix" values="0 0 0 0 0 0 0 0 0 0 0 0 0 0 0 0 0 0 127 0" result="hardAlpha"/>
<feOffset dy="4"/>
<feGaussianBlur stdDeviation="2"/>
<feComposite in2="hardAlpha" operator="out"/>
<feColorMatrix type="matrix" values="0 0 0 0 0 0 0 0 0 0 0 0 0 0 0 0 0 0 0.25 0"/>
<feBlend mode="normal" in2="BackgroundImageFix" result="effect1_dropShadow_0_1"/>
<feBlend mode="normal" in="SourceGraphic" in2="effect1_dropShadow_0_1" result="shape"/>
</filter>
</defs>
</svg>
