<svg width="300" height="350" viewBox="0 0 300 350" fill="none" xmlns="http://www.w3.org/2000/svg">
<rect width="300" height="350" fill="#1E1E1E"/>
<rect width="300" height="300" fill="#272727"/>
<g filter="url(#filter0_b_0_1)">
<ellipse cx="142" cy="156" rx="87" ry="51" transform="rotate(31.0542 142 156)" fill="#B7A928"/>
</g>
<ellipse cx="145" cy="150" rx="87" ry="51" transform="rotate(31.0542 145 150)" fill="#E2CE20"/>
<g filter="url(#filter1_b_0_1)">
<path fill-rule="evenodd" clip-rule="evenodd" d="M119.531 193.26C160.694 218.046 205.841 218.578 220.371 194.448C234.9 170.319 213.31 130.665 172.148 105.879C130.985 81.0929 85.8379 80.561 71.3083 104.691C56.7786 128.82 78.3687 168.474 119.531 193.26ZM120.027 192.22C160.243 216.436 204.353 216.956 218.549 193.381C232.744 169.806 211.65 131.063 171.434 106.847C131.218 82.631 87.1087 82.1113 72.9131 105.686C58.7174 129.261 79.8112 168.004 120.027 192.22Z" fill="#FFF700"/>
</g>
<path fill-rule="evenodd" clip-rule="evenodd" d="M120.822 190.801C159.871 214.314 202.7 214.818 216.484 191.928C230.267 169.037 209.786 131.419 170.737 107.906C131.688 84.393 88.8593 83.8883 75.0757 106.779C61.2922 129.67 81.7737 167.287 120.822 190.801ZM121.293 189.814C159.444 212.786 201.289 213.279 214.755 190.915C228.222 168.55 208.212 131.797 170.06 108.825C131.909 85.8521 90.0648 85.359 76.5981 107.723C63.1314 130.088 83.1421 166.841 121.293 189.814Z" fill="#7A7606" fill-opacity="0.72"/>
<ellipse cx="145.491" cy="148.333" rx="50" ry="29.3103" transform="rotate(31.0542 145.491 148.333)" fill="#FFEA2F"/>
<rect y="300" width="300" height="50" fill="#181818"/>
<path d="M89.4683 317.68H102.236V321.592H101.612L100.916 319.072C100.868 318.88 100.812 318.744 100.748 318.664C100.7 318.568 100.596 318.512 100.436 318.496C100.276 318.464 100.004 318.448 99.6203 318.448H96.9083V332.056C96.9083 332.616 96.9323 332.944 96.9803 333.04C97.0283 333.136 97.1803 333.2 97.4363 333.232L98.7563 333.376V334H92.9723V333.376L94.2923 333.232C94.5483 333.2 94.7003 333.136 94.7483 333.04C94.7963 332.944 94.8203 332.616 94.8203 332.056V318.448H92.0843C91.7163 318.448 91.4443 318.464 91.2683 318.496C91.1083 318.512 90.9963 318.568 90.9323 318.664C90.8843 318.744 90.8363 318.88 90.7883 319.072L90.0923 321.592H89.4683V317.68ZM113.482 327.808V328.288C113.482 330.096 113.026 331.544 112.114 332.632C111.218 333.704 109.938 334.24 108.274 334.24C106.626 334.24 105.346 333.704 104.434 332.632C103.538 331.544 103.09 330.096 103.09 328.288V327.808C103.09 326.016 103.538 324.584 104.434 323.512C105.33 322.424 106.61 321.88 108.274 321.88C109.938 321.88 111.218 322.424 112.114 323.512C113.026 324.584 113.482 326.016 113.482 327.808ZM111.322 327.328C111.322 325.664 111.058 324.472 110.53 323.752C110.018 323.016 109.266 322.648 108.274 322.648C107.298 322.648 106.546 323.016 106.018 323.752C105.506 324.472 105.25 325.664 105.25 327.328V328.768C105.25 330.448 105.506 331.656 106.018 332.392C106.546 333.112 107.298 333.472 108.274 333.472C109.266 333.472 110.018 333.112 110.53 332.392C111.058 331.656 111.322 330.448 111.322 328.768V327.328ZM120.865 329.152L119.401 328.792C117.401 328.28 116.401 327.128 116.401 325.336C116.401 324.744 116.537 324.184 116.809 323.656C117.081 323.128 117.513 322.704 118.105 322.384C118.713 322.048 119.489 321.88 120.433 321.88C121.489 321.88 122.337 322.056 122.977 322.408C123.617 322.76 124.065 323.216 124.321 323.776C124.577 324.336 124.657 324.944 124.561 325.6L122.689 325.936C122.881 324.896 122.769 324.088 122.353 323.512C121.953 322.936 121.289 322.648 120.361 322.648C119.641 322.648 119.065 322.832 118.633 323.2C118.201 323.552 117.985 324.072 117.985 324.76C117.985 325.272 118.145 325.728 118.465 326.128C118.785 326.512 119.321 326.8 120.073 326.992L121.585 327.352C122.641 327.608 123.457 328.016 124.033 328.576C124.625 329.136 124.921 329.872 124.921 330.784C124.921 331.808 124.545 332.64 123.793 333.28C123.057 333.92 122.001 334.24 120.625 334.24C119.969 334.24 119.329 334.144 118.705 333.952C118.097 333.744 117.561 333.424 117.097 332.992C116.649 332.544 116.321 331.968 116.113 331.264L117.457 330.784C117.633 331.792 118.017 332.496 118.609 332.896C119.201 333.296 119.881 333.496 120.649 333.496C121.097 333.496 121.521 333.424 121.921 333.28C122.337 333.136 122.673 332.912 122.929 332.608C123.185 332.288 123.313 331.88 123.313 331.384C123.313 330.872 123.137 330.432 122.785 330.064C122.433 329.696 121.793 329.392 120.865 329.152ZM132.232 329.152L130.768 328.792C128.768 328.28 127.768 327.128 127.768 325.336C127.768 324.744 127.904 324.184 128.176 323.656C128.448 323.128 128.88 322.704 129.472 322.384C130.08 322.048 130.856 321.88 131.8 321.88C132.856 321.88 133.704 322.056 134.344 322.408C134.984 322.76 135.432 323.216 135.688 323.776C135.944 324.336 136.024 324.944 135.928 325.6L134.056 325.936C134.248 324.896 134.136 324.088 133.72 323.512C133.32 322.936 132.656 322.648 131.728 322.648C131.008 322.648 130.432 322.832 130 323.2C129.568 323.552 129.352 324.072 129.352 324.76C129.352 325.272 129.512 325.728 129.832 326.128C130.152 326.512 130.688 326.8 131.44 326.992L132.952 327.352C134.008 327.608 134.824 328.016 135.4 328.576C135.992 329.136 136.288 329.872 136.288 330.784C136.288 331.808 135.912 332.64 135.16 333.28C134.424 333.92 133.368 334.24 131.992 334.24C131.336 334.24 130.696 334.144 130.072 333.952C129.464 333.744 128.928 333.424 128.464 332.992C128.016 332.544 127.688 331.968 127.48 331.264L128.824 330.784C129 331.792 129.384 332.496 129.976 332.896C130.568 333.296 131.248 333.496 132.016 333.496C132.464 333.496 132.888 333.424 133.288 333.28C133.704 333.136 134.04 332.912 134.296 332.608C134.552 332.288 134.68 331.88 134.68 331.384C134.68 330.872 134.504 330.432 134.152 330.064C133.8 329.696 133.16 329.392 132.232 329.152ZM153.861 334.168C152.613 334.168 151.877 333.592 151.653 332.44C151.093 333.08 150.477 333.544 149.805 333.832C149.133 334.104 148.469 334.24 147.813 334.24C146.693 334.24 145.869 333.928 145.341 333.304C144.813 332.68 144.549 331.928 144.549 331.048C144.549 330.104 144.869 329.36 145.509 328.816C146.165 328.256 147.293 327.976 148.893 327.976H151.605V326.032C151.605 324.752 151.381 323.872 150.933 323.392C150.501 322.896 149.909 322.648 149.157 322.648C148.677 322.648 148.245 322.744 147.861 322.936C147.477 323.128 147.197 323.48 147.021 323.992C146.861 324.488 146.845 325.216 146.973 326.176L145.077 325.888C144.997 325.136 145.093 324.464 145.365 323.872C145.653 323.264 146.117 322.784 146.757 322.432C147.413 322.064 148.229 321.88 149.205 321.88C150.373 321.88 151.269 322.08 151.893 322.48C152.517 322.864 152.949 323.368 153.189 323.992C153.445 324.616 153.573 325.296 153.573 326.032V331.432C153.573 332.248 153.661 332.76 153.837 332.968C154.029 333.176 154.237 333.28 154.461 333.28C154.605 333.28 154.757 333.248 154.917 333.184C155.077 333.104 155.253 332.984 155.445 332.824L155.877 333.424C155.637 333.632 155.349 333.808 155.013 333.952C154.693 334.096 154.309 334.168 153.861 334.168ZM148.485 333.232C148.933 333.232 149.413 333.112 149.925 332.872C150.453 332.616 151.013 332.112 151.605 331.36V328.744H149.157C148.261 328.744 147.605 328.928 147.189 329.296C146.789 329.648 146.589 330.2 146.589 330.952C146.589 331.672 146.741 332.232 147.045 332.632C147.365 333.032 147.845 333.232 148.485 333.232ZM169.547 334.24C167.515 334.24 165.963 333.56 164.891 332.2C163.835 330.84 163.307 329.016 163.307 326.728V324.928C163.307 323.424 163.531 322.112 163.979 320.992C164.443 319.872 165.123 319 166.019 318.376C166.915 317.752 168.011 317.44 169.307 317.44C170.507 317.44 171.499 317.68 172.283 318.16C173.067 318.624 173.635 319.24 173.987 320.008C174.339 320.76 174.451 321.584 174.323 322.48L172.259 322.984C172.435 321.448 172.259 320.272 171.731 319.456C171.203 318.624 170.395 318.208 169.307 318.208C168.091 318.208 167.163 318.64 166.523 319.504C165.899 320.368 165.587 321.776 165.587 323.728V327.928C165.587 329.896 165.923 331.312 166.595 332.176C167.267 333.04 168.267 333.472 169.595 333.472C170.123 333.472 170.627 333.384 171.107 333.208C171.587 333.016 171.995 332.696 172.331 332.248C172.667 331.8 172.875 331.176 172.955 330.376L174.443 330.76C174.091 332.04 173.467 332.944 172.571 333.472C171.691 333.984 170.683 334.24 169.547 334.24ZM187.38 327.808V328.288C187.38 330.096 186.924 331.544 186.012 332.632C185.116 333.704 183.836 334.24 182.172 334.24C180.524 334.24 179.244 333.704 178.332 332.632C177.436 331.544 176.988 330.096 176.988 328.288V327.808C176.988 326.016 177.436 324.584 178.332 323.512C179.228 322.424 180.508 321.88 182.172 321.88C183.836 321.88 185.116 322.424 186.012 323.512C186.924 324.584 187.38 326.016 187.38 327.808ZM185.22 327.328C185.22 325.664 184.956 324.472 184.428 323.752C183.916 323.016 183.164 322.648 182.172 322.648C181.196 322.648 180.444 323.016 179.916 323.752C179.404 324.472 179.148 325.664 179.148 327.328V328.768C179.148 330.448 179.404 331.656 179.916 332.392C180.444 333.112 181.196 333.472 182.172 333.472C183.164 333.472 183.916 333.112 184.428 332.392C184.956 331.656 185.22 330.448 185.22 328.768V327.328ZM192.507 319.432C192.123 319.432 191.803 319.312 191.547 319.072C191.307 318.816 191.187 318.488 191.187 318.088C191.187 317.704 191.307 317.392 191.547 317.152C191.803 316.912 192.123 316.792 192.507 316.792C192.891 316.792 193.203 316.912 193.443 317.152C193.699 317.392 193.827 317.704 193.827 318.088C193.827 318.488 193.699 318.816 193.443 319.072C193.203 319.312 192.891 319.432 192.507 319.432ZM189.699 322.768V322.12H193.515V332.056C193.515 332.616 193.539 332.944 193.587 333.04C193.635 333.136 193.787 333.2 194.043 333.232L195.363 333.376V334H189.699V333.376L191.019 333.232C191.275 333.2 191.427 333.136 191.475 333.04C191.523 332.944 191.547 332.616 191.547 332.056V324.064C191.547 323.504 191.523 323.176 191.475 323.08C191.427 322.984 191.275 322.92 191.019 322.888L189.699 322.768ZM210.287 333.376V334H204.623V333.376L205.943 333.232C206.199 333.2 206.351 333.136 206.399 333.04C206.447 332.944 206.471 332.616 206.471 332.056V326.08C206.471 324.896 206.279 324.064 205.895 323.584C205.511 323.088 204.959 322.84 204.239 322.84C203.711 322.84 203.127 323 202.487 323.32C201.847 323.64 201.247 324.264 200.687 325.192V332.056C200.687 332.616 200.711 332.944 200.759 333.04C200.807 333.136 200.959 333.2 201.215 333.232L202.535 333.376V334H196.871V333.376L198.191 333.232C198.447 333.2 198.599 333.136 198.647 333.04C198.695 332.944 198.719 332.616 198.719 332.056V324.064C198.719 323.504 198.695 323.176 198.647 323.08C198.599 322.984 198.447 322.92 198.191 322.888L196.871 322.768V322.12H200.567V324.064C201.143 323.296 201.791 322.744 202.511 322.408C203.247 322.056 203.983 321.88 204.719 321.88C205.903 321.88 206.815 322.248 207.455 322.984C208.111 323.704 208.439 324.728 208.439 326.056V332.056C208.439 332.616 208.463 332.944 208.511 333.04C208.559 333.136 208.711 333.2 208.967 333.232L210.287 333.376Z" fill="#B3CCDB"/>
<defs>
<filter id="filter0_b_0_1" x="58.9404" y="89.3662" width="166.119" height="133.268" filterUnits="userSpaceOnUse" color-interpolation-filters="sRGB">
<feFlood flood-opacity="0" result="BackgroundImageFix"/>
<feGaussianBlur in="BackgroundImageFix" stdDeviation="2"/>
<feComposite in2="SourceAlpha" operator="in" result="effect1_backgroundBlur_0_1"/>
<feBlend mode="normal" in="SourceGraphic" in2="effect1_backgroundBlur_0_1" result="shape"/>
</filter>
<filter id="filter1_b_0_1" x="62.7798" y="82.9357" width="166.119" height="133.268" filterUnits="userSpaceOnUse" color-interpolation-filters="sRGB">
<feFlood flood-opacity="0" result="BackgroundImageFix"/>
<feGaussianBlur in="BackgroundImageFix" stdDeviation="2"/>
<feComposite in2="SourceAlpha" operator="in" result="effect1_backgroundBlur_0_1"/>
<feBlend mode="normal" in="SourceGraphic" in2="effect1_backgroundBlur_0_1" result="shape"/>
</filter>
</defs>
</svg>
